PathFileType	4	(X/Y/Z)	Patient4_TMGait_0pt7_02_right_31.trc.trc
DataRate	CameraRate	NumFrames	NumMarkers	Units	OrigDataRate	OrigDataStartFrame	OrigNumFrames
83.832335329341	83.832335329341	4	33	mm	83.832335329341	71	       141
Frame#	Time	Sacral			L.Shoulder			Chest			R.Shoulder			Neck			R.ASIS			L.ASIS			R.Thigh.Superior			R.Thigh.Lateral			R.Thigh.Inferior			R.Patella			L.Thigh.Superior			L.Thigh.Lateral			L.Thigh.Inferior			L.Patella			L.Shank.Superior			L.Shank.Lateral			L.Shank.Inferior			R.Shank.Superior			R.Shank.Lateral			R.Shank.Inferior			R.Heel			R.Midfoot.Superior			R.Midfoot.Lateral			R.Toe			L.Heel			L.Midfoot.Lateral			L.Midfoot.Superior			L.Toe			L.Elbow			L.Wrist			R.Elbow			R.Wrist			
		X1	Y1	Z1	X2	Y2	Z2	X3	Y3	Z3	X4	Y4	Z4	X5	Y5	Z5	X6	Y6	Z6	X7	Y7	Z7	X8	Y8	Z8	X9	Y9	Z9	X10	Y10	Z10	X11	Y11	Z11	X12	Y12	Z12	X13	Y13	Z13	X14	Y14	Z14	X15	Y15	Z15	X16	Y16	Z16	X17	Y17	Z17	X18	Y18	Z18	X19	Y19	Z19	X20	Y20	Z20	X21	Y21	Z21	X22	Y22	Z22	X23	Y23	Z23	X24	Y24	Z24	X25	Y25	Z25	X26	Y26	Z26	X27	Y27	Z27	X28	Y28	Z28	X29	Y29	Z29	X30	Y30	Z30	X31	Y31	Z31	X32	Y32	Z32	X33	Y33	Z33	

71	35.665000000000	829.038302012507	1006.988741699888	521.156823494371	1028.725756549145	1421.497562140741	334.313935579715	1139.063949091307	1338.560210995333	484.841822261819	1079.759686729328	1419.612662795749	664.672983235784	1050.418936122665	1477.689116115458	489.807868740217	1050.630038150167	932.466551748165	637.619903890961	1036.217073793783	941.382776453887	361.035255068837	1039.720118175965	720.999726624740	614.293748266424	926.516864166429	633.542983895217	671.487234454480	986.853624577932	563.881669689048	595.546235374293	967.043495505527	480.468412786650	599.679053088757	1108.933621767530	772.140944061480	399.409555178426	1075.547777953720	643.319075964556	309.336408320976	1177.919388299453	588.287058337126	376.447652382998	1209.421583026228	522.999434147566	371.652578441523	1192.495918876933	448.802259382827	359.331367915196	1128.038286921779	320.981290443460	300.757292869720	1210.382284265167	219.148688418900	358.059585850996	927.524978717469	399.812279330284	603.078994383751	844.441052353521	303.754846354930	662.578084362520	878.611307545997	205.893750524811	597.302677786598	732.589049014876	44.959413502563	563.525642356964	905.858433133591	96.498481265443	598.368717022237	816.782878261204	37.113472976379	636.067012241373	1025.297086384807	40.121892266239	622.372942461446	1122.283038710059	42.065252285146	384.396478809870	1202.733649325633	46.820284151009	310.784220106977	1273.796678522478	120.348194534335	340.147728740230	1408.430355897640	86.630520514434	324.369684311776	829.447077353109	1136.442426050501	241.686828569522	743.763482766650	889.420550804593	261.221663533856	1187.586691034239	1094.143751829450	771.088258915382	1416.324029078025	1115.169936921471	664.295721071694	
72	35.676928571429	830.163362161679	1005.536641473035	518.020700882776	1029.134936530312	1420.309565426051	331.666571886608	1139.196428759340	1338.166734808112	482.796234932369	1078.540105851086	1419.131807538006	662.222115164998	1049.873411311986	1476.776347927691	487.189955336389	1051.582198491551	931.262919630287	635.682412588755	1038.263473949434	940.022076081654	359.185745199188	1039.512901401601	719.560784209431	612.553182878491	925.285754084687	633.041491156200	669.803906833413	984.958619554261	562.665951277009	594.101141277725	964.246895174186	479.046236465669	598.265983851140	1110.000914431362	768.658316155875	397.267447709500	1073.233549570025	639.504082830047	309.124436041836	1175.788808398312	584.046960874991	375.469991638009	1205.811943948666	518.661575114881	371.740771587565	1189.104179273715	444.696673730638	359.666619858882	1123.959158293646	316.556914619890	303.163221673748	1206.766207884329	215.244386789698	360.447549788746	923.557343258996	398.916079946978	601.876243871772	839.387642367769	304.126575326842	661.878799018011	872.054721292230	205.664645086822	596.834692458026	724.338179936280	45.696806289346	563.635618196080	897.788732384054	96.620285393535	598.460055367682	808.538803676027	37.371211642812	636.191558996517	1017.009804568381	39.827047372232	622.428608993735	1118.068471849004	40.027861062180	388.604239410132	1197.947774565351	43.741047884587	314.323088346666	1270.186861413580	115.736777798481	343.387534957735	1404.203971348562	79.896127069518	326.614948796026	829.085770959223	1136.169919826514	239.797066465407	741.369744708521	889.818828594877	260.067406388268	1190.472436488790	1095.093176701916	766.772909665584	1415.711097832004	1128.271156106384	657.206068138108	
73	35.688857142857	831.329882454399	1004.382277403083	514.768074241926	1029.661656447378	1419.316178835177	328.824808631646	1139.473660939961	1337.987159294252	480.563758494406	1077.500993067363	1418.906123337982	659.566107887453	1049.475436686241	1476.094632644267	484.324059118160	1052.629670295051	930.210832963639	633.543873994534	1040.335306242483	938.960680441689	357.185946294113	1039.640476010403	718.312363154705	610.694239040340	924.501468257983	632.618375303146	667.947983951773	983.695282781385	561.544427092650	592.588570549919	962.089696779320	477.651374170040	596.766611197301	1111.351301546257	765.756841411715	394.888867261004	1071.216453397400	636.257880819908	309.025839666864	1174.133283599492	580.524737593847	374.501373683502	1202.543599725206	514.766581942191	371.967656352500	1185.825962673320	440.902126321213	360.086551867297	1119.539135940688	312.803725985009	305.351403779466	1202.093993664981	211.564183000777	362.734902890169	920.155279241085	398.035549845768	600.607244172740	834.707734306111	304.687277097893	661.073160673418	865.789464961121	205.556869163327	596.372961174459	716.145966639064	46.776536955925	563.795010167288	889.877896545957	96.826561319541	598.603955072310	800.358625120004	37.757978329802	636.326915039833	1008.763823396664	39.514164074827	622.482553563322	1111.767955106620	38.656647904152	392.382758082051	1191.147000371883	41.177508226143	317.469717286580	1264.865388012104	111.245821789575	346.497016854139	1398.152857044958	72.700832706309	328.719405373225	829.608847755753	1135.455601912787	237.514896109573	740.630952412716	889.506838890855	258.468226280173	1192.641651900987	1096.022466569949	762.619352218772	1414.005983878919	1140.338273078694	650.579536890345	
74	35.700785714286	832.516619358363	1003.597261052481	511.448488552352	1030.317447200868	1418.572424137759	325.820643048290	1139.911153706412	1338.025951610380	478.151035963035	1076.729508505706	1418.954891697636	656.727263233551	1049.272263161224	1475.686719138638	481.244891690300	1053.720631181121	929.368622237740	631.205022583011	1042.363664266672	938.248539421452	355.012158636233	1040.015671487113	717.305199395758	608.743212505350	924.096485351763	632.314514206167	665.945343337518	983.016398341032	560.564457559010	591.034275404776	960.551738066082	476.318003051649	595.236328950636	1112.914910343883	763.566482593602	392.352286867048	1069.615400352145	633.756025037733	308.926237231631	1172.945376381556	577.829545074427	373.552857369736	1199.670077344864	511.483335264579	372.277717256560	1182.775869503805	437.594152402495	360.509757272161	1115.121612081287	309.839607414975	307.042600716221	1196.728000992079	208.281951996716	364.741079918164	917.294177113644	397.209443228578	599.323175871654	830.371180345311	305.476092646630	660.181932615247	859.818456701023	205.613882538847	595.950763279851	708.022733716204	48.264841810191	564.018543896240	882.149434545892	97.121276423637	598.814010779114	792.247127057712	38.306420356134	636.480901283652	1000.557603461297	39.197871539928	622.526813203386	1103.986723090840	37.843975394011	395.463694378477	1182.985671717963	39.178940137926	320.017696017791	1258.285590087659	107.165640309023	349.262999331864	1390.829221715622	65.686632886323	330.590159307801	831.019082178448	1134.352515509867	234.826135983547	741.588124430197	888.505617149578	256.399259377700	1194.065561012134	1096.883487424753	758.714189176262	1411.343493455883	1151.228193548134	644.454899124039	
